<svg width="200" height="200" viewBox="0 0 200 200" fill="none" xmlns="http://www.w3.org/2000/svg">
<path d="M95 11.2891C92.0313 12.3828 90 14.0625 83.0079 21.0547C77.461 26.6406 76.6407 27.3438 75.4688 27.3438C74.7657 27.3438 70.1954 26.7188 65.3125 25.9375C55.7813 24.4531 54.2969 24.4141 50.5469 25.8203C48.2813 26.6797 44.6875 29.6484 43.3985 31.7578C42.1094 33.8672 41.4454 36.5625 40.0391 45.5469C39.2969 50.2734 38.5938 54.4531 38.4375 54.8047C38.3204 55.1562 34.2969 57.4219 29.5704 59.8438C22.1094 63.6328 20.586 64.5703 18.5157 66.6016C15.8204 69.2969 14.4922 72.1094 14.1797 76.0156C13.8672 79.4922 14.7266 81.875 19.6485 91.4844L24.0235 100L19.6485 108.477C14.7266 118.125 13.8672 120.508 14.1797 123.984C14.4922 127.891 15.8204 130.703 18.5157 133.398C20.586 135.43 22.1094 136.367 29.5704 140.156C34.2969 142.578 38.3204 144.844 38.4375 145.195C38.5938 145.547 39.2969 149.727 40.0391 154.453C41.4454 163.438 42.1094 166.133 43.3985 168.242C44.6875 170.352 48.2813 173.32 50.5469 174.18C54.2969 175.586 55.7813 175.547 65.3125 174.062C70.1954 173.281 74.7266 172.656 75.4297 172.656C76.5625 172.656 77.5782 173.516 83.9454 179.805C93.0079 188.75 93.9063 189.258 100 189.258C106.094 189.258 106.992 188.75 116.055 179.805C122.422 173.516 123.438 172.656 124.57 172.656C125.273 172.656 129.805 173.281 134.688 174.062C144.219 175.547 145.703 175.586 149.453 174.18C151.719 173.32 155.313 170.352 156.602 168.242C157.891 166.133 158.555 163.438 159.961 154.453C160.703 149.727 161.406 145.547 161.563 145.156C161.68 144.805 165.703 142.539 170.469 140.156C178.008 136.328 179.414 135.508 181.484 133.438C184.18 130.703 185.508 127.891 185.82 123.984C186.133 120.508 185.273 118.125 180.352 108.477L175.977 100L180.352 91.4844C182.734 86.8359 185 81.9531 185.352 80.7031C186.719 75.9766 185.352 70.6641 181.797 66.8359C179.883 64.7656 178.828 64.1016 170.742 60C165.82 57.5 161.68 55.1953 161.563 54.8047C161.406 54.4531 160.703 50.2734 159.961 45.5469C158.555 36.5625 157.891 33.8672 156.602 31.7578C155.313 29.6484 151.719 26.6797 149.453 25.8203C145.703 24.4141 144.219 24.4531 134.688 25.9375C129.805 26.7188 125.273 27.3438 124.57 27.3438C123.438 27.3438 122.422 26.4844 116.055 20.1953C107.344 11.6016 106.133 10.8594 100.586 10.6641C97.8125 10.5469 96.6407 10.7031 95 11.2891ZM131.875 75.0391C132.852 75.4688 133.945 76.4062 134.414 77.1875C135.43 78.8672 135.547 81.7578 134.648 83.3984C134.336 84.0234 124.922 93.6719 113.789 104.766C91.5235 126.992 92.1485 126.445 88.5938 125.43C87.1875 125 85.2344 123.281 76.4454 114.531C70.6641 108.789 65.6641 103.555 65.3516 102.93C64.4532 101.289 64.5313 98.4766 65.4688 96.8359C66.9141 94.375 70.2344 93.1641 72.9297 94.1406C73.5157 94.375 77.6563 98.2031 82.1485 102.656L90.2344 110.742L108.125 92.8516C120.039 80.9375 126.406 74.8438 127.148 74.6484C129.023 74.0625 130.117 74.1797 131.875 75.0391Z" fill="#0077B6"/>
</svg>
